<?xml version="1.0" encoding="UTF-8"?>
<svg id="Layer_1" xmlns="http://www.w3.org/2000/svg" version="1.1" viewBox="0 0 800 230">
  <!-- Generator: Adobe Illustrator 29.5.1, SVG Export Plug-In . SVG Version: 2.1.0 Build 141)  -->
  <defs>
    <style>
      .st0 {
        fill: #fff;
      }
    </style>
  </defs>
  <path class="st0" d="M134.1,1.9l-14,82.3h-10.7L95.4,1.9c-.2-1.1-1.2-1.8-2.3-1.6C39.1,10.5,0,57.9,0,115s39.1,104.5,93.2,114.7c1.1.2,2.1-.5,2.3-1.6l14-82.3h10.7l14,82.3c.2,1.1,1.2,1.8,2.3,1.6,54.1-10.1,93.2-57.6,93.2-114.7S190.5,10.5,136.4.3c-1.1-.2-2.1.5-2.3,1.6Z"/>
  <path class="st0" d="M392.5,71.6c-6.4-3.7-13.8-5.5-22.3-5.5s-17,2.1-23.2,6.2c-6.2,4.1-10.6,9.8-13.4,17h-1.4V26.8h-33v163.2h33.9v-70.8c0-5.3,1.1-9.8,3.1-13.5,2-3.7,4.8-6.6,8.3-8.6,3.5-2,7.6-2.9,12.2-2.9,6.9,0,12.3,2.1,16.1,6.3,3.8,4.2,5.7,10.1,5.7,17.6v71.9h33.9v-77.9c0-9.6-1.7-17.8-5.2-24.7-3.5-6.9-8.5-12.2-14.8-15.9ZM530.2,81.5c-5.2-5.2-11.3-9-18.3-11.6-7-2.6-14.5-3.9-22.6-3.9-12,0-22.5,2.7-31.4,8-8.9,5.3-15.8,12.7-20.7,22.2-4.9,9.5-7.3,20.6-7.3,33.1s2.4,24.1,7.3,33.5c4.9,9.4,11.9,16.7,20.9,21.8,9.1,5.1,19.9,7.7,32.5,7.7s19-1.6,26.7-4.7c7.7-3.1,14-7.5,19-13.1,4.9-5.6,8.2-12.2,9.8-19.7l-31.4-2.1c-1.2,3.1-2.9,5.7-5.1,7.8-2.2,2.1-4.9,3.7-8,4.8-3.1,1.1-6.6,1.6-10.4,1.6-5.7,0-10.6-1.2-14.7-3.6-4.1-2.4-7.3-5.8-9.6-10.2-2.3-4.4-3.4-9.6-3.4-15.7h0c0,0,83.3,0,83.3,0v-9.3c0-10.4-1.5-19.5-4.4-27.3-2.9-7.8-7-14.3-12.2-19.4ZM463.5,116.5c.2-4.4,1.3-8.4,3.4-12.1,2.2-4,5.3-7.1,9.3-9.5,4-2.4,8.5-3.5,13.7-3.5s9.3,1.1,13,3.2c3.7,2.2,6.7,5.1,8.8,8.9,2.1,3.8,3.2,8.1,3.2,13h-51.3ZM781.7,51.9c5,0,9.4-1.7,12.9-5.1,3.6-3.4,5.4-7.4,5.4-12.2s-1.8-8.7-5.4-12.1c-3.6-3.4-7.9-5.1-12.9-5.1s-9.4,1.7-12.9,5.1c-3.6,3.4-5.4,7.4-5.4,12.1s1.8,8.8,5.4,12.2c3.6,3.4,7.9,5.1,12.9,5.1ZM703.8,66c-9,0-16.7,2.1-23.3,6.3-6.6,4.2-11.1,9.8-13.6,16.9h-1.3c-2-7.1-5.9-12.8-11.8-16.9-5.9-4.2-13-6.3-21.4-6.3s-15.4,2.1-21.4,6.2c-5.9,4.1-10.2,9.8-12.7,17h-1.4v-21.6h-32.3v122.4h33.9v-73.5c0-4.5.9-8.5,2.6-11.8,1.7-3.4,4.1-6,7.1-7.9,3-1.9,6.4-2.8,10.2-2.8,5.6,0,10.1,1.8,13.5,5.3,3.4,3.6,5.1,8.3,5.1,14.3v76.3h32.9v-74.7c0-6.4,1.7-11.5,5.2-15.4,3.5-3.9,8.3-5.9,14.4-5.9s9.9,1.7,13.5,5.1c3.6,3.4,5.4,8.5,5.4,15.3v75.6h33.9v-82.3c0-13.3-3.6-23.5-10.7-30.8-7.1-7.3-16.4-10.9-27.8-10.9ZM764.6,190h33.9v-122.4h-33.9v122.4Z"/>
</svg>