<svg width="200" height="200" viewBox="0 0 200 200" fill="none" xmlns="http://www.w3.org/2000/svg">
<rect width="200" height="200" rx="100" fill="#FF6C15"/>
<path d="M112.688 34.02C112.009 33.898 111.37 34.3456 111.25 35.0373L103.057 82.3606H96.9428L88.7502 35.0373C88.6303 34.3456 87.9909 33.898 87.3115 34.02C58.218 39.7574 35.9182 64.9856 34.0799 95.8292C34.0799 95.8699 34 97.172 34 97.8231C34 97.9044 34 97.9858 34 98.0265C34 98.2706 34 98.5148 34 98.7589C34 98.8403 34 98.9217 34 99.0438C34 99.3693 34 99.6541 34 99.9797C34 132.695 56.9391 159.917 87.3515 165.939C88.0309 166.061 88.6703 165.614 88.7902 164.922L96.9827 117.599H103.097L111.25 164.963C111.37 165.654 112.009 166.102 112.688 165.98C141.782 160.202 164.042 134.974 165.92 104.13C165.92 104.089 166 102.787 166 102.136C166 102.055 166 101.973 166 101.933C166 101.689 166 101.445 166 101.2C166 101.119 166 101.038 166 100.916C166 100.59 166 100.305 166 99.9797C166.04 67.2643 143.101 40.0423 112.688 34.02Z" fill="white"/>
</svg>
