<svg width="400" height="400" viewBox="0 0 400 400" fill="none" xmlns="http://www.w3.org/2000/svg">
<rect width="400" height="400" fill="#1E1E1E"/>
<path d="M-2579 -2042C-2579 -2043.1 -2578.1 -2044 -2577 -2044H13379C13380.1 -2044 13381 -2043.1 13381 -2042V1442C13381 1443.1 13380.1 1444 13379 1444H-2577C-2578.1 1444 -2579 1443.1 -2579 1442V-2042Z" fill="#444444"/>
<path d="M-2577 -2043H13379V-2045H-2577V-2043ZM13380 -2042V1442H13382V-2042H13380ZM13379 1443H-2577V1445H13379V1443ZM-2578 1442V-2042H-2580V1442H-2578ZM-2577 1443C-2577.55 1443 -2578 1442.55 -2578 1442H-2580C-2580 1443.66 -2578.66 1445 -2577 1445V1443ZM13380 1442C13380 1442.55 13379.6 1443 13379 1443V1445C13380.7 1445 13382 1443.66 13382 1442H13380ZM13379 -2043C13379.6 -2043 13380 -2042.55 13380 -2042H13382C13382 -2043.66 13380.7 -2045 13379 -2045V-2043ZM-2577 -2045C-2578.66 -2045 -2580 -2043.66 -2580 -2042H-2578C-2578 -2042.55 -2577.55 -2043 -2577 -2043V-2045Z" fill="white" fill-opacity="0.1"/>
<path d="M200 400C310.457 400 400 310.457 400 200C400 89.543 310.457 0 200 0C89.543 0 0 89.543 0 200C0 310.457 89.543 400 200 400Z" fill="#FF6C15"/>
<path d="M292.017 176.974C296.128 151.574 278.151 139.818 268.062 133.33C258.017 126.841 242.662 122.174 242.662 122.174L252.484 82.6184L229.817 76.9295L219.995 116.485L201.884 111.907L211.706 72.3517L188.773 66.6406L178.951 106.196L131.017 94.1517L125.195 117.618C125.195 117.618 148.862 123.53 151.462 124.218C154.128 124.863 153.773 126.218 153.551 127.107C153.328 127.996 123.773 247.218 123.328 248.796C122.973 250.396 122.706 251.307 120.506 250.796L95.3729 244.485L88.9062 270.552L135.306 282.174L125.906 319.996L150.64 326.196L160.04 288.352L175.44 292.218L166.04 330.063L189.595 335.974L199.017 298.152L216.751 302.596C228.528 305.552 273.284 306.107 283.017 266.796C292.773 227.463 260.528 210.818 260.528 210.818C260.528 210.818 287.862 202.374 292.017 176.974ZM238.306 249.907C233.64 268.73 212.64 270.174 207.862 268.952L165.751 258.418L178.195 208.152L221.862 219.085C230.24 221.218 242.995 231.085 238.306 249.907ZM246.084 173.352C241.106 193.396 221.106 192.485 214.795 190.93L184.017 183.218L195.884 135.374L223.973 142.396C228.773 143.596 251.084 153.33 246.084 173.352Z" fill="#FFF6ED"/>
</svg>
