<svg width="3000" height="866" viewBox="0 0 3000 866" fill="none" xmlns="http://www.w3.org/2000/svg">
<path d="M502.875 7.15391L450.375 317.031H410.25L357.75 7.15391C357 3.01217 353.25 0.376517 349.125 1.12956C146.625 39.5348 0 218.006 0 433C0 647.994 146.625 826.465 349.5 864.87C353.625 865.623 357.375 862.988 358.125 858.846L410.625 548.969H450.75L503.25 858.846C504 862.988 507.75 865.623 511.875 864.87C714.75 826.842 861.375 647.994 861.375 433C861.375 218.006 714.375 39.5348 511.5 1.12956C507.375 0.376517 503.625 3.01217 502.875 7.15391Z" fill="#002E32"/>
<path d="M1471.87 269.59C1447.87 255.658 1420.12 248.881 1388.25 248.881C1356.38 248.881 1324.5 256.788 1301.25 272.225C1278 287.663 1261.5 309.124 1251 336.234H1245.75V100.908H1122V715.391H1249.12V448.814C1249.12 428.858 1253.25 411.915 1260.75 397.983C1268.25 384.052 1278.75 373.133 1291.87 365.603C1305 358.072 1320.38 354.683 1337.62 354.683C1363.5 354.683 1383.75 362.59 1398 378.404C1412.25 394.218 1419.37 416.433 1419.37 444.672V715.391H1546.5V422.081C1546.5 385.935 1540.12 355.06 1527 329.08C1513.88 303.1 1495.12 283.144 1471.5 269.213L1471.87 269.59ZM1988.25 306.865C1968.75 287.286 1945.87 272.978 1919.62 263.189C1893.37 253.399 1865.25 248.504 1834.87 248.504C1789.87 248.504 1750.5 258.67 1717.12 278.626C1683.75 298.582 1657.88 326.444 1639.5 362.214C1621.12 397.983 1612.12 439.777 1612.12 486.843C1612.12 533.908 1621.12 577.584 1639.5 612.977C1657.88 648.37 1684.12 675.857 1717.87 695.059C1752 714.262 1792.5 724.051 1839.75 724.051C1887 724.051 1911 718.027 1939.87 706.355C1968.75 694.683 1992.37 678.116 2011.12 657.03C2029.5 635.945 2041.87 611.095 2047.87 582.856L1930.12 574.949C1925.62 586.621 1919.25 596.41 1911 604.317C1902.75 612.224 1892.62 618.249 1881 622.39C1869.37 626.532 1856.25 628.415 1842 628.415C1820.63 628.415 1802.25 623.897 1786.87 614.86C1771.5 605.823 1759.5 593.022 1750.87 576.455C1742.25 559.888 1738.12 540.309 1738.12 517.341H2050.5V482.324C2050.5 443.166 2044.88 408.903 2034 379.534C2023.13 350.165 2007.75 325.691 1988.25 306.489V306.865ZM1738.12 438.648C1738.87 422.081 1743 407.02 1750.87 393.089C1759.12 378.028 1770.75 366.356 1785.75 357.319C1800.75 348.283 1817.62 344.141 1837.12 344.141C1856.62 344.141 1872 348.283 1885.87 356.19C1899.75 364.473 1911 375.392 1918.88 389.7C1926.75 404.008 1930.88 420.198 1930.88 438.648H1738.5H1738.12ZM2931.38 195.415C2950.12 195.415 2966.62 189.014 2979.75 176.212C2993.25 163.41 3000 148.35 3000 130.277C3000 112.203 2993.25 97.5191 2979.75 84.7174C2966.25 71.9156 2950.12 65.5148 2931.38 65.5148C2912.62 65.5148 2896.12 71.9156 2883 84.7174C2869.5 97.5191 2862.75 112.58 2862.75 130.277C2862.75 147.973 2869.5 163.41 2883 176.212C2896.5 189.014 2912.62 195.415 2931.38 195.415ZM2639.25 248.504C2605.5 248.504 2576.62 256.411 2551.87 272.225C2527.12 288.039 2510.25 309.124 2500.88 335.857H2496C2488.5 309.124 2473.87 287.663 2451.75 272.225C2429.62 256.411 2403 248.504 2371.5 248.504C2340 248.504 2313.75 256.411 2291.25 271.849C2269.12 287.286 2253 308.748 2243.62 335.857H2238.38V254.529H2117.25V715.391H2244.37V438.648C2244.37 421.704 2247.75 406.643 2254.12 394.218C2260.5 381.416 2269.5 371.627 2280.75 364.473C2292 357.319 2304.75 353.93 2319 353.93C2340 353.93 2356.88 360.708 2369.63 373.886C2382.38 387.441 2388.75 405.137 2388.75 427.729V715.015H2512.13V433.753C2512.13 409.656 2518.5 390.453 2531.62 375.769C2544.75 361.084 2562.75 353.554 2585.62 353.554C2608.5 353.554 2622.75 359.955 2636.25 372.756C2649.75 385.558 2656.5 404.761 2656.5 430.364V715.015H2783.62V405.137C2783.62 355.06 2770.12 316.655 2743.5 289.169C2716.87 261.683 2682 248.128 2639.25 248.128V248.504ZM2867.25 715.391H2994.37V254.529H2867.25V715.391Z" fill="#002E32"/>
</svg>
