<?xml version="1.0" encoding="utf-8"?>
<!-- Generator: Adobe Illustrator 28.1.0, SVG Export Plug-In . SVG Version: 6.00 Build 0)  -->
<svg version="1.1" id="Layer_1" xmlns="http://www.w3.org/2000/svg" xmlns:xlink="http://www.w3.org/1999/xlink" x="0px" y="0px"
	 viewBox="0 0 1043.5 324.5" style="enable-background:new 0 0 1043.5 324.5;" xml:space="preserve">
<style type="text/css">
	.st0{fill:#FF6C15;}
	.st1{fill:#FFFFFF;}
</style>
<g id="Symbol">
	<path class="st0" d="M196.9,0.1c-1.7-0.3-3.3,0.8-3.6,2.5l-20.5,116.3h-15.3L137,2.5c-0.3-1.7-1.9-2.8-3.6-2.5
		C60.6,14.1,4.8,76.2,0.2,151.9l0,0c0,0.1-0.2,3.3-0.2,4.9v5.3l0,0c0,80.4,57.4,147.3,133.5,162.1c1.7,0.3,3.3-0.8,3.6-2.5
		l20.5-116.3h15.3L193.3,322c0.3,1.7,1.9,2.8,3.6,2.5c72.8-14.2,128.5-76.2,133.2-152l0,0c0-0.1,0.2-3.3,0.2-4.9v-5.3l0,0
		C330.4,81.8,273,14.9,196.9,0.1z"/>
</g>
<path class="st1" d="M546.3,115.3c-8.2-4.6-17.7-6.9-28.7-6.9c-12.1,0-22,2.6-29.8,7.8c-7.8,5.2-13.5,12.2-17.2,21.2h-1.9V57.8
	h-36.4v210.8h37.3v-92.7c0-7.6,1.5-14.1,4.4-19.5s7-9.5,12.1-12.3c5.2-2.8,11.1-4.3,17.7-4.3c9.8,0,17.5,3,22.9,8.9
	c5.5,5.9,8.2,14.2,8.2,24.9v94.9h37.3V167.9c0-12.8-2.2-23.6-6.7-32.4C560.8,126.6,554.5,119.9,546.3,115.3z"/>
<path class="st1" d="M716.1,127.6c-6.7-6.5-14.4-11.3-23.1-14.5c-8.7-3.1-17.9-4.7-27.6-4.7c-15.1,0-28.2,3.4-39.4,10.3
	s-19.9,16.5-26.1,28.8c-6.2,12.3-9.3,26.6-9.3,42.9s3.1,30.9,9.3,43.1c6.2,12.2,15,21.6,26.5,28.2s25.2,9.9,41,9.9
	c12.3,0,23.2-1.9,32.7-5.6s17.4-9,23.5-15.9c6.1-6.8,10.3-14.8,12.5-24l-34.8-3.8c-1.6,4.5-4.1,8.2-7.3,11.2s-7,5.3-11.4,6.8
	s-9.3,2.3-14.7,2.3c-8.1,0-15.2-1.7-21.2-5.2s-10.7-8.5-14.1-15c-3.2-6.3-4.9-13.9-5-22.7h110.1v-11.4c0-13.9-1.9-25.8-5.8-35.9
	C728,142.4,722.8,134.1,716.1,127.6L716.1,127.6z M627.6,174.6c0.4-6.2,2-11.9,4.8-17.2c3.2-5.9,7.7-10.7,13.4-14.4
	c5.8-3.7,12.5-5.5,20.1-5.5c7.1,0,13.4,1.6,18.8,4.8s9.6,7.6,12.6,13.2c3,5.6,4.6,12,4.6,19.1L627.6,174.6L627.6,174.6z"/>
<path class="st1" d="M931.5,108.4c-11.5,0-21.4,2.6-29.7,7.9s-14.3,12.3-17.8,21.1h-1.6c-3-8.9-8.2-16-15.6-21.2s-16.4-7.8-27.1-7.8
	s-19.7,2.6-27.3,7.7s-13.1,12.2-16.4,21.3h-1.9v-26.9h-35.6v158.1h37.3v-96.2c0-6.5,1.3-12.2,3.9-17.1c2.6-4.9,6.1-8.7,10.5-11.4
	s9.3-4.1,14.6-4.1c7.9,0,14.3,2.4,19.2,7.3c4.9,4.9,7.4,11.4,7.4,19.6v101.9h36.5V170c0-8.9,2.5-16.2,7.6-21.8
	c5-5.6,12.1-8.4,21.1-8.4c7.5,0,13.9,2.3,19.1,6.8c5.2,4.6,7.8,11.8,7.8,21.6v100.4h37.4V162.4c0-17.6-4.6-31.1-13.8-40.3
	C957.9,113,946.1,108.4,931.5,108.4L931.5,108.4z"/>
<rect x="1006.2" y="110.4" class="st1" width="37.3" height="158.1"/>
<rect x="1006.2" y="57.8" class="st1" width="37.3" height="30.2"/>
</svg>
